/* XPM */
static char *_d7039810bd248bea147e5e36665e4aa[] = {
/* columns rows colors chars-per-pixel */
"128 128 66 1 ",
"  c #017EFD",
". c #0284FC",
"X c #028BFE",
"o c #0099F7",
"O c #0194FD",
"+ c #029BFC",
"@ c #099FFD",
"# c #0BA1F6",
"$ c #05A1FC",
"% c #0BA2FC",
"& c #10A2F7",
"* c #1CA2F7",
"= c #13A3FC",
"- c #1BA4FC",
"; c #1DA8FE",
": c #23A6FC",
"> c #2BA6FD",
", c #26A8FC",
"< c #2CAAFD",
"1 c #35AFF7",
"2 c #34ACFC",
"3 c #3BAEFD",
"4 c #37B0F7",
"5 c #39B2F7",
"6 c #37B0FC",
"7 c #3BB2FC",
"8 c #42B5FC",
"9 c #49B7FB",
"0 c #45B9FD",
"q c #4BBBFC",
"w c #51BEFD",
"e c #5BBFFC",
"r c #4FC0FC",
"t c #54C2FD",
"y c #5BC4FD",
"u c #5EC9FD",
"i c #64C5FD",
"p c #6BC7FE",
"a c #63CBFD",
"s c #6BCCFE",
"d c #74CDFE",
"f c #7ACFFE",
"g c #64D2FE",
"h c #6BD4FD",
"j c #6DD8FF",
"k c #73D4FD",
"l c #7DD3FE",
"z c #75D9FC",
"x c #7CDBFD",
"c c #7DE0FF",
"v c #80D5FE",
"b c #83DBFC",
"n c #8BDDFC",
"m c #94DFFE",
"M c #84E1FC",
"N c #8CE3FC",
"B c #93E3FD",
"V c #9BE5FD",
"C c #95E9FD",
"Z c #9CE9FD",
"A c #A0E6FF",
"S c #A3EBFD",
"D c #AAEEFD",
"F c #A4F0FE",
"G c #AEF0FE",
"H c #B2F1FD",
/* pixels */
"                                                                    o              . .  ..       .     .     .   ...     .   *  ",
"           .                                                                    .      . . o *  .     o      .      *   .       ",
"                                                                   *            .   .    .     .        *  ..      * .  ..   *  ",
"   ..                                                                     o    o. .  .. . .  ...o  * *   .. ..*          ..*  . ",
" .    .      .                   .                                    o  o   o  . .. .. ..  o .. #     o. .......... .   o    o ",
"         ..                        .                       *  *   o o           .. .. ......  ..   o    ..............*.        ",
"   ..  .       .                      o       *            *     *    o    oo  o...... ........        #.. ....... .....   oo  o",
" .        .  .        .             o            *             o        o       .. . ...........o   #   ................ o      ",
". .  . . .  . .  . .. .          ... o  ... ....      o    *        o  o   o o  ................  o   .    ............. o... ..",
" . .. . .  . . .. .  . .           .     . ... .  *     o   *   o o     o     o .. .. ..........       o oo..... .......    # ..",
". .  ..  .. .  . . .. .    * ...o       .. .....*    o  o     o          o      ................  o .o o   ..o..........* .o. ..",
".. .. ... .. .. .......     ...  ..  o o........     o o  o o   o o  oo    oo o .X..............oo  ..  .o..... ...o....  ... *.",
".  .... .... .... ............ ....o... ........  *         o o    oo    oo    oX...X.....X...X.  o  oo .oo ...o..........o.. ..",
".............. .................................o   o  o o oo    o     o     o  ..X...XX........ o     .. ..o...o.....o... ..oo.",
".......... .......................o..oo . ......  oo      o        o o  o o    o.X.XX.X..X.X.X..  oooo  ...  .....oX.. oo..... .",
"..... ...........................  .. ...o...... o   o* o    o o o   o o    oo  X.XXXX.X......X.o     o o .o..o.XXX.o.....o... o",
"...........XX..X.........XX..X.X................... *... *.... *o  o   oX..X...XX.X..X..X...X.X....X.XX.X..X.XX..XXX.X.XX.XX..XX",
".........X....X......X.X...XX...X...*.....*........* ........... o o o  ..X..XX..X..X..X.XX..X.X.X.....X..X.X....XX.XXX.XX.XXXX.",
".........*X..XX..X......XX....X..... .....  * ..................  o o o .XX..X.....X.X.X.....X...*X.X....XX....XX..X..X.XXXXXXXX",
"......... .X..........X.....XX.X.... ........... *..... ... *...o     o X...X..XXXX.X.X.X.XXX.X.. .X.XX.X..X.X.XXXXXXXXXXXX.XXXX",
"....X..X.X..X..XX.X..X.XX..X...XX.. X.X...X.........X..*..* X.XX oo   o .X.XX..X.X.XXX.XX.X.X..X.X.X.XXXXXX.XX.XX.XXX.XXXXXXXXXX",
"...........X..X..X.XX..X..X..XX..X.*.X.....X*.X....X.X...........   o  oX.X..X..XXXX.XXXXXXXXXXXXXXXXXX.X.XXXXXXXXXXXXXXXXXXXXXX",
"..o.X..XX..X.XX.X.X.X.X..XX..X..X.X.X..X*.X. X.X*.X...X..X...X.. o oo  oXX.XX.XXXXXXXXXXXXXXXXXXXXXXXXXXX.XXXXXXXXXXXXXXXXOXXXXO",
"o.....X...X.X...XX.X.X.X....X..X.X.X.XXX ..X..X. ...X...X..X.X..o o  o  .XXX.XXXXXXXXXXXXXXXXXOXXXXXXXXXX.*.XXXXXXXOXXXOX@XXOOXX",
"..X..X...X..X..X.XX..XX.X.X...X..X.X.X..X..XX..X...XXX.XXXX..X*. o oOXXXXXXXXXXXX.XX.XXX.XX.XXXXXXXXXXXXXXXXXXXX.ooXO.X.XOOXoXOX",
"....X..X...XX..XX......X.X.XX..XX.X.X.X.XXX.XXX.XXX..X.XXX.*XX.Xo o XXXXXXXOXXXXXXXXXXXXXXXX.XX.XXXXXXXXXXXXOXXXXX...OOoXXXX.OOX",
"...X...X .....X....X.....X.....XXX.XXX.XXXXXXXXXXXXXXXXXXXX.XXXX. ..XXO.XXXXOXXOXXXXO.XXXXXXO.XXXX@XXXXXXXXXXXXXOO.oo.o.OXOOOXo.",
".XX.XXXX*..XX..X.X.. *X.X.X.XX.X.XXX.XXXXXXXXXXXXXXXXXXXXXX@XXXXoo.oXXX.XXOXXXXXXXXXX.OXX.oXXXX.XXXXX.@XXOXOXOXO.Oo.Oo.oOOXOOoXo",
".XX..X.X.X......XX.X..XX......X.XX.XXXXXXXXXXXXXXXXXXXXXXXXXXXXX.o.o...oOXXOXXXXXOo.o.o.OOXO.o.oOXOXXXXOXXOXXOXOo.OOoXO.OOOOXOOX",
"XX...XX.X.XX..*.X..XXXX.X *XXXXXXXXXXXXXXXXXXX@XXXXXXXXXXXXXXXXX...o.oo.XXXXXXXOXXXXOO.OO.OXO.OXXOXOX@OXOXOXOXOXXoOOXXOOOXOXoXOO",
".X..XX.X.X.XX..XXX.*...X.XX...X.XXXXXXXOXXX=XXXXXXXXXX=.XXXOXXXOoo..oo..XXXXOXXXOXOO.OOXOXoXXXoOOOOXXXOXOOOXXOXOOoO.Xo.OOOOoXooX",
"*.*.XXXX..*XXXXXX....*.XXXXXX.*.XOXXXXXXXXX.XXOXX@@XXXXXOXXXOXXX..o....oOXXOXXOXXOXXOX.O.O.OOXXXOXXX@OXOXOXOOXXo.XOooXooOOOOOOOO",
".X.XX.X.XXXXXXXXXXXXXXX.XXX.XXX.XXXOXXX.XOXXXXXXXXXXOXXXXXOXXOXXXXXXXXXXXXXXXXXXOOXOXXXXOXOOOXOOXOXOX@XOOXOOXOXOXOOXXOOOXOOOXOOX",
"..XXXXXXXXXXXXXXOXXXXXXOOXXOXXXOOXX.XOXOXXOXXXXOXOXXXXOXOXXXXXXOOOX@X@XXOOX@X@XX.XOXoXoXXOXXXOXXOXOXXXOXXOOXOXOXOXXOOXXOOXXXOXXO",
"XXXXXXXXXXXXXXXXXXXXXXOXXXXXXXOXXXOXXXXXXXXXOXXXXXXXXXXXXXOXX@OXXXXXOXOXXXXXOXOXOO.OXoXoOOOOOOXOOXOOOOOOOXXOOXOOOO@XOOOOOOOOOXOO",
"XXXXOXXXXOXOOXOXXOXOOXXXXOXOOXXXOXOXXXOXOXOXXXXOXOXXOXOXOOXOXXXXXXXXOXXXXXXXOXXXOOoOXXOXOOXOOOOOOOOOOOXOOOOOOOOOOXOOXOOOOXOOOOOO",
"XXXXXXXXXXXOXXOXXXOXOXOXOXXOXoOXXOXOXXXOOXOXOXOXXOXOXOXOOXOXOX@X@OXXOXXO@X@XOOXOOXOOXOOOOOOXOOOOOOOOOXOOOOOOOOOOOOOOOOOOOXOOOOOO",
"OXOXXOXXOOXXOXXOOXOXXOXOXOXOXXXOOXOXOOOXXOXOXOXOOXOXOXOXOOOX@XXXXOX@OX@XXOOXXOOO.oOOOOOOOOOOXOOOXOOOX@OOOOOOOOOOOOOXOOOOOOOOOOOO",
"XOXXXOXOOXXOXOOXXOOXoXXXOXOOOoXXOOXOO.oXoXOXOXOOoXOOXOOOOOOOOXOOXOOOXOOOOXOOXOOOXoOOOOOOOO@O++OOOO@OOOOOOO@OOOOOOOOOOOOO@OOOOOOO",
"OXOXOXOXXOOXOOXOoXOoXOoOOOOXOXOOXOoXOOXoXOXoXoOXXoXXOOXOOXOOOOOOOOOO@XOOOOOOOOOXOOXoOOOOOOOOOOOO@OOOOOX@OOOOOO+OOOO@@XOOOOOO@X@O",
"XOOOXOOOOOOXOOOXoO.oXXOXoXXoXOOOOXOOXOOOOOOOOOOOOOOOOOOOOOOOOOOOOOOOOOOOOXOOOOO@OoOoOOOoOOooOOoOOO+OOoOOOoOOO+OO+O+O+OoOOOOO+OO+",
"OOXXOOXOOXOXOXOO.OoXoOO.XOOXoOX.OOOOOOOOOOOOOOOXOOOOOOOOOOOOOOOO@XOOOOOXOOOOOOOOOOOOOoOXoOOOOoOXOO+O+OO++O+OOOoOOOOOOOOOO@+O@OO+",
"OOOOOOOOOOOOXOOOOOOOXXoooXoXXoOoOOOOOOOOOOOOOOOOOOOOOOOOOOOOOOOOOOOOOO@X+OO+OOOOOOoooooooOooooOoO++O+OOo+o+oO++oo++oo+++++O+O+++",
"OOOOOOOOOOOOOOOOOOOooOOOOoOXoOOoOO@OOO@OOOO+@OOOO+OOOOOOX@OOOOOOOO@XOOOOOOOOOOOOooOoOOoOOoOOOooOooO+oO++OO+Oo+OOoOOo+OOoO++++++O",
"OOOOOOOOOOOOOOOOOOOOOOOOOOoXoOOO+OOO+OOOOOO+OOOOOOOO+OOOOOOO+OO+OOO+@O++O+OOOOO+OooOoo+ooOooOooO+++O+++O+++Oo+++++++O++++++++++O",
"OOOOOOOOOOOOOOOOoOoOooOooOoOOOoOO@+OO++O++OOO+O+@OO+OO++@OO+OO+O++OOOOOOO++O++OOoO+OOO+O+OO+++O++O+++O+++O++O++++O+O+++O++++++++",
"O+OOOO+O+O+O+O+OO+O+OOOO+OOOOoO++OO++O+OO++OOO+OO+OO+OOO+O+OO+O+O++O+O+O+OO+O+O++o+oo+oo+ooOoooo+o+o++++oo++++++o++o+++++++$++++",
"OOO++OOO+OOOOO+OOoOOO+OoOO+OO+OOO+OOOOOO@OOO@+O++O++O+@OO+O++O+O+OO+OO@OOO+O+OO+O+oo+ooOo+ooo+O+++++o++o+++++o+o+++++++++++++$++",
"+OOO++OO+OOOO+OO+OOoO+O+OOoO+++O@OOOOOO@OOOOO@OO@OO+OOO+OO+O+O+OO@O@O@OO@OOO@O@O+++++++++++O++++++++++++++++@o$$$++$+$$++$$$$+$+",
"OO+OOO+OOOO+OO+OO++O+OOOOOO+OOO+OO@O@O@O@O@OOOO@O++O++O+++O+++O+@OOO@OO@@O@OO@@O$$+++O++++++++++@+@@@%++@+@@+$$$$$$$$$$$$$$$$$$$",
"+O+OO+O+O+OO+O+O++O+O+o+oooooO+O@+OO@OOO+OO+@O@O+O+++++++O+++++O++@OO+++OO++O+O@$$$#++++++++++$o++@++@$++@o$$+$$$$$$$$+$$$$$$$$$",
"O+O++O+O+O++O+O+O++OoOo+OoOO++++O+++O+O@+O++O+O++++++O+++++++O+++O@@@+++@@@O@@O+$$$$++$+$++++$+$+@$++@$$@+@+@$$$$$$$$$$$$$%%%%$$",
"O+++O+O+++OO+++OO++++++OoOo+O+++++++++++++++++++++++++++++++$+++++++++++++++++@+$$$$$$$$$$$$$$$$$@@$$$$$+$@+$#$$$$%%+%@%%%%%%$%$",
"++OO++O++O+++O++++O++O+++OO++++++$+++++++++$+$++++$+++++++$++++++++++$++$+++++++$%$$$$$%$$$$$$$$$$$##$$%$#$$$$$$%%%@%%%@%%%%%%%%",
"++++O++++++++O+++oo++o+oo++o++$++++$$+++$+$++++$$$+$+$$$$$$+$+$$++$+$+$+$++$+$+$%%%%$$%%$$$$$$$$%$$$%$%#%$%$$%%%%%%@==%@%%%=%%%=",
"++++++++++O+++O+++++++++o+o++++++$+$+$+$+$+$+$+$$+$+$+$++$+$+$+$$$$$$$$$$$$$$$+$%%%#$%%%$$$$$$$$%#%&%%##%#%&%%%%=====@===;==;=;=",
"++++++++O+++++++oooooooo$o$ooo@o$+$$+$$+$+$$$$++++$+o$+$$o$$+$$+$$$$$$$$$$$$$$$#$#$$#$%#%$%%$%%%######&%==%%;%%&=*=====-;=-=--=-",
"O+O++++++++O++++oo+ooooo@+@$@@+$$$+$$$$$$$+$+$$$$+o$++$o+$+$$++$#$$$#$#$$$$#$#$$%%##$#%#%#%%%$;%&&&&&=&=&&;&&&&&*****----;------",
"+++++++++++@++++ooooo@ooooo@o$@o$$$$$$$$$$$$$$$+$o$$+@+@@$$$+$@+####$#%#$#$%%#####&&&#%#&&%%;%==&==*&&;;=*;=;&;;-***-*--;-;;----",
"+$++$++%+@++$++%$o@$o@$o$$$+$$o@$$$$+$%$$$$$%$$%$@@@@@@O%%$$%@%@$#=###&#&%&&&%%&&;&&;#;#%;;%%;==-=*;;;;;;--*;;;;-::::::::::::>::",
"%++$+$++%++@+%++$@@+$@$@$$$@@$$$$%@%@$@%%$%%@$@@$%@@@=@=%@@@%%@==&=&&&=&=%=&&===&;&&&&;&;;&;&;-=****;***::*:;:::>:::::::>::>>>:>",
"$%%++%%+@$$+%+%+$$%$$$$$%$%$+$$$%%%@%%%@%%@%%%=@=%@==@@@======@=&&;==&=*;=;&;=;=&;;;;;;&;&%;;;;;*:*:,,,,*,,,::::>>>>>>>>><<<>>>>",
"$%+@%$%$$%$%$+%$%$$%$$%%$%$%%$%%%%%%%@%@%@%=@%@@===@============&-&;;==-;;;-;&;-;;*;;;;;;;;;;;;;,,,,,,,,,:,>:,::<>>>><<><<<><<<<",
"@@%%@@@@@@@@%@%@%%&%$%%&%%%&%%%%%==========@===================-;-=-*=-=-;;;;;;-*,;,;;;;;;;;:*,,,><,<<<<>>>,>,>>2>>>><<<2<<<2<<<",
"==*X@=-X==*X=@=@=&&%=%%==%=%&@===--=*@:X*=*=>.***;*;--;;-;---;*;;:*,1***>:,,:*::,,,,1**>>,1:,,,,<<<,>,,<<<<<<<<<6<6<<222<22<2<2>",
"==*=-=-=-=*===*====&&===&=&=====-=****:*---*:*****;*;**;-*-;**;;:**:**::,,*:*1:,,:1*,>1:<,<,<<<<,<><<<,<<<<<<<<<6<66222<2<<2<222",
"==@**==-@*@**====-=;*=*=;==-*=--**--****--*******:****;;::::::;:1*>::::>,*::::,*,1,,1:>><<<<<6<<1<<<<<1<<<<<<6<<6<<<<22222222<2<",
"***-=-*****-**--=;=--*---;------*::*:>*:::::*>**::,,,,,;:::,,:,,*,,,:>:,,1>>,>>1,1<<:11:<<<1<<<<<<<<1<<<<6<66;<<6<6622262<2<2222",
"**:-----**---:-:;;*:*:**;;:;:-:-::::>:::::>:>>>>:,,,,,,,>,<,:,,,<>>>,<,,<<<<1><><<<>>1<<1<<<1<6<<66<<<1<66<;6;6;<662262222622222",
"*::*--:-::>:::::::::::::,,::>>>:>>>>>>>>>>>>>>>><,<,,<<,<,<<<<<<<<<<<,<<<<<<><,11<<11<<<<16<6<<<<<<<2<<6;666666666<6622227222262",
":>:::::::::::::>:::>::>,><><>>2>2>>>>>2>>>>>>>>><<<<<<<,<<<<<>2><1<<1<<<<66<<6<<<<<1<1<21<6<<<1611<16<1<6<<66<6666<6222772223636",
":*:*::::>>:>:>>>>:>>>>>>>>>>>>>>2>2>3>2>2>>>>>>><<<<<<<<6<6<2222<<<<<<1<<<<6<<<6621<1<622226666<<661<616666666666666266267766276",
">>>>>>>>3>>>>>>>1>>>>>3>>2>2>2>>2>>>33>>222>3>>3<6<<1,2>1>>11>1><<<6<6<<6<<<66<<2222222262226<6<661<5666666666666667677776777667",
">>>>2>>>>>>>2>2>>13>3>>12222223>>33>3>3322>3>33><<2<21212>1>>12>66<<<<6<6<<6<<<6226226222<66666611645566656666766577767777777777",
">>2>2>2>3>>3222>>22>>13>11222>323>>3>3>3212233336<11<1<1211>21>26<6<666666<<<666272762726266666614447577576575777787775077777777",
"2>222222>33>3>23122131>1222222>3333333>322343>>36122122222111221666<66<6<66666<627222627666<666654447555577657557757775777877877",
"3>3>>222>33>3>>2>13>113>2222322222223>3>2222223333131113113334226666666666666666366267736272676654555557775055575858500007708780",
"33>332233>>3>3333211>33122722423113333333232311111131332333134256666666666666666777772777777667654557575555557558788777077r70070",
"3>333>3>3333333>31113113567227333112111324231213315311314543137576666676667766667337737377776067750805050050005080587r77r7000000",
"33>3333333333333323311>32764723323233333344333313333333343333477676676776677666677777777373767775555505005050505558007rr7r000000",
"33333333333333333338333383833333333837837477357357757575777577767766077777007677070670607077607088888888r5999955rq0qrr5r5rrr95rr",
"3333333333333333333333833333333838837378833883877777677777777770666567757777605670600706760006708980898900r599rrqq99r5r9995rrr5r",
"33333933333393333939833393389333888388388833835377777877777777770550750577r70000070606067r7r070799999900r09rr9r95rq9r999rrr5r9rr",
"333393399393333939333893338333998888888883888888878777700070700700060070r7750660000000007r77700000090000r0r99r9rrqqr9rr95rr9rrrr",
"933393333333993339338838933839838888888888888888888878887r8070885005050000005r5900r6000000r70000qq0qqq0q00qqr999rrrrrrrrrrrrrrrr",
"39933993999933398398888889893838988808089088989880080808r7000000000000000000r9r90r0rr0r0000r0r00qqqqqqqqqqqq99r9rrrrr9rrrrrrrrrr",
"9939993939939999898888888393993889899898000000090900009000q00000r000r000000000r9r0r0r00r0r0rrrqqqqqwqwqqwwwwrrrrrrrrrrrrrrrtrrtt",
"39933993393933938899889898999899980089990990990909090099000qqqqq0rr0000rqqrq0r990r0r0r0rr0r0r0qqwwwwwwwwwwrrrrerrrrrrrrrartrturu",
"9999999999939399990989q9999999000q99qq0qqqqq0q9qqqqqqqqqqqqqqqqqrqqq9r999r9rr9rrr0r0qqqqrwwwwwqwwwwwrwrtrrrrerrrrrrrrrrrrrrarrra",
"959995993999993999q99999999999q09qq909qqq9q99q9qqqqqqqqqqwqwwqwqr0qr9rrrrrr9r9r9rrrrwqqqtrwrwrrwwwwwttwtarrrraraaaraararttarraar",
"99999999999999999909q999qq9wqqqqww9wqwqqq9w9qqwqqwwqwwqwwwwwwwwwr9rr9rrrrrrrrrttrrrrwwwrtrwrwtwwwtttttttrrarrarrrrrrrargarargrrg",
"9999999qe99999e99qqq99w9wqwqwqqwwwwwwwwwwwwwwwwwwwwwwwwwewwwwwwwrrrrerrtreeettttrrrrttttttttttttttttytyyrarrararrggrarrararargra",
"99rrqqqqw99e9999wwqwqwwwwwwwwwwwwrrtrtrttrttewtwewteettewewtwteetetttttteetuttttgrrtuttyyyyyytyeytutyuuuararargrhraargarrgrggaaa",
"wwwwwwwwwww9ee9ewwtwtwwwewwetwttttttttttttttwtttytyyytyttytytetyettueettueetueetrgurtuytyyyyyyyuuyuuuuuuraaaaaaaaaaaagaagagaggga",
"ewwewwwwwee99eeewtwewtwttetwttttttttuttututtttttyyyyyyyyyyyeeyyyeuteuueuuutuuuuugtuuuyyuuuuyuuuyuuuuuuuuragraraarggrrgaaagaarggg",
"eweweeeweweee9eeeytttttetytyytytuyyyytytytyyuyyyuyyyyyyyyyyyyyyyaeaeueueuueaeueuuuuuuuuyuuuuuiuuuuuguuugaaaggggggaazagaaaggggggg",
"eeeeeeeeeeeeeeeeepeeiieeeeeeeeeeyyyyyyeuyyyuyyyyuyuyuyyuuuuuuuuuaeaeaeaepeaeaaaaaaeazraaaaraaarauggugguggugugggggrgggggggggggggg",
"eeeeeeeieepeeppeeeepeeieeiieieieyuyyyyueuuuuuuuyyiuuuuyiuuuiiuuaeaaaaiaieaaieaeeaaaaraaaarzaaahaugugugguaguggrgggggggggggggggggg",
"iiiiiiiieppeppeepepeieeiieiieiieyyiuiiueiieiuiiaaiyuuuiuaaaaaauaaaapaaiizeaazezeaaaazraaaaaaaaaaggggggggggggggggggggjggggggggggg",
"iiiiiiiipepppeppepepiipipipepiipiiiaiiiaaaiaiaaiaaaaaaiaaaaaaaaiasasspkaezpaapiiaaaaazaarzaaaaaaggggggggggggggggggggggggggggjjgj",
"eppeiiieeppppppppppppppiiippppipiiaiaiiiaasaasaaaiaaaaasaahsaaassasaakiazzeaezepzezaaazezaazhahagghggghghghhghhahhgghhgjjjjjjgjj",
"peppipppppepeepppppppipizipppappssssssssssppssssphpasasasssahsssapssaepaiaizzeziazzaazazzazaahazhjhgghhhhhhghghhgzzggzjjjjjjjjjj",
"ppppppppppppppppppppppppppppppkissssssssshshsshshhshshshssssshssspssikziziziizizazazzazaazazhhggzhhhzhjhhhhhzhzhzgzhzzzgjjjjjjjj",
"ppppppppfppfpppppppppppffpppkpkpssdhssssdsdssdsdspshssssshdhshhszzszkpzzizizzizezazaazaazazahgzgzjzhhhhzhhzhzhhhzzgzzgjzjjjzzjjj",
"dddpfpfpfpfpfppfpffpfppffppfpfpfdhdddhdhzpzpfsppkkkkkdhkhhkdhkkkzszkppzpfpzzzfzzazzazazazgzgzzzzhhzhzzzhzzhzzzzhzzzzzjzzzzzzzjzz",
"dpddpfpfpffppffpfpffffffpfffzpkfdddddddkfpfksfzfksksdkkddkdkdkdhkkpkzkzzzpzizizezzzazzzzzzzzgzzgzzzzzzzzzhzzzzzzzzzzzzzzzzzzzzzz",
"fpfdfpffpffffpfffffppffffzffffpffkffffffffffzffffkkkzkkzkzkkkfkfkzzkzfzpzzzzzfzzzzzzzzzzzzzzzzzzzzzzzzzzzzzzzzzzzzzzzzzcczccczcc",
"fffffffffffpfffffffffffffffpfffffzfffkfkfffzffzfzzzffzffffkzzfzzkkfkzzzzzzzzzzzfzzzzzzzzzzzzzzzzMzzzzzMxzzzzzbzzzxxxxxzxcccccccz",
"ffffffffffffffvfffffffffffffffbffllffffvfzfbfffffllzllzvzzfzxfxfzzzfzzfzzzzzzzzzzzzzzzzzzMzzzzzzzMxMzMxxbbzMzbzbxcxxcccccccccccc",
"fffvvfvfffvfffffffffvfnfbfbfffbfvfllvvvvzffbbfbflxlzzxzxlbxxxxxfbbzzfzzzzzzzzNzzzzzzzzzzzzMzMzMzMzxxxxxxzbMMMzMzMMMMcMMMMcMccccc",
"ffffffvffvffvfvvvfnffffnfbbfbfffvvvvvvfvbffbfbffblxxbxllzfbfxxfxzzbzzzbzzbzbzbzzzNzzzzzzzzzMMzzNMMMxMcMMMMbzMMMMMMMMMMMMMMMMNcNM",
"fvvvvvvfffvvvvvfvbfbfnffnffbfbfbvvvvvvbvvbfbfbbblblbblbxbbxbvbbxbbzbbbzbbzbzbzzzNzNzNzNzMMMzMMzNMMMMMMMMNMMMMMMMMMMMMMMMNNMMNNNN",
"bfbffbffnfbbnfvvvbffbfffbffbfbbfbfbbbfbbfbfbbbfbbbbbbxbbbxbbxbxbbbzbbbzbbbbbMbbMbzNNzNzNzzNzzNMzzNNMNNNNMMNNMMNNMNNMNNNNNMNNNNNN",
"fbfbbfbbbbfffvbfbfbnfbnbbbbbnffbbbbbbbbbbbbbbbbbxxbbbbbbbbbbbbbbzbbbbbbbNbbbbNbMNzNzNzNzNNNNMNMMNNMNNNNNMNMNNNNNNNNNNNNNNNNNNNCN",
"bbfbbbfbbbfbbbvnfnbbbvvbbnbfbbnbbbbbbbbnbbbbbbbbbbbbbbbbbbbbbbbnbbbbbbnnbbNNNbNMNNNNNzNNNNNNNNNNNNNNNNNNNNNNNNNNNNNNNNNNNNNNCNNC",
"bbnfbbnfnfbbbnvnnnbbbbnbbfbbfbbbbnbbbbbbbbbbnbbnbnnbnbbnnbbnbnbbNnnnnNbnNNNbbNNbNNNNNNNNNNzNNNNNNNNNNNNNNNNNNNNNCCNCCNCNNNCCCCNC",
"bnbbfnnnbbnbvnnfnbbbnbvnnbnnnbnbbbbbbbbnbbnnnnnnnbNnnnnbnnbnbnnnNNNNNnnNNBNNNNNNNNNNNNNNNNNNNNNZNNNNNNZNNNCNCNCCCCCCCCCCCCCCCCCC",
"bbnbnnvnnnnnnnnnbbnnbbnnnnnnnnnnnnnnnbnnnnnnnnnnmnNnNbnNnNmNNnNnNNNNNNBNNNNNNNNNNNZNZNZNNNZNZNNNNNZNCNNNCNZCCCCCCCCZCCZZCZCZCZZZ",
"nnnnnnnnnnnnnnnnnnnnnnnnnnnnnnnnnnnnnnnBnnnnnnnnmNmNmNmNmmnNnNmNNBBNVNBNVNNBNNNNNZNNNZNNNZNNNNZNNZNZNZZCZCZCCCCZZZZZZZZZZZZZZZZZ",
"nnnnnnnnnnnnmnnnnnmnnnmnnnnnnnnnVnVnVnnnnnnVnnnBmNnmmNnNmNmNmNmmBNBBBBBBBBBNZZNZNZZZZNZNNNZZZZZZZNZZCZCNZZZZZZZZZZZZZZZZZZZZFZFF",
"nnnnVmmmmmmmmmmmmmmmmmmmmnmmmmmmmnBnBVnVBBBBmBBmBBBBBBBBBBBBVCCCVCVBCCVBZVZVVCVCZZZNZZNZZNZZZZZNZZZZZZZZZZZZZZZZZZZDZZZZFFZFDZDD",
"nVVnVnVnmmmmmmmmmmmmmmmmmVmmmVmmVBBVBBVnVBVBBmVVBBBBVBBVVBVBVVVVVCVVVVVVVZVZVVZZNZZZZZDNZZZZZZZZDZDZZZZDZZDZZDZDDDDZDDDDFDDDZDZD",
"VnVnmmmVmmmmmmmmVmVmVmmVVVmmVmVVmmVVVnVVVBVVVVVVVBVVVBVVVBVVVVZVVVZZVZZZZZZZZZZZZZNDZZZDDZZZDZZDZZDZZDDZZDDZDDDZDDDDDDDDDDZDDDDD",
"VVVVVVnVVmVVVmVVVVmVmVVmVmVVVVVmVVVVVVVVVVVVVBVVVVVVVVVVVVVZVVZZZZZZZZZZZZSZSZZZZDDNDZDNZDDZDZZZDDDZDZDDDZDDDDDDDDDDDDDDDDDDDDHD",
"VVVVVVVVVVVVVVVVVVVmVVVVVVVVVVVVVVDVVVVVVVVVVSVVVVSVVSVVZAAVAZSASZSSSSSZSSZSSZZSZDDDDZZDDZDDDZDDDDDDDDDDDDDDDDDDDDDDDHDDHHHHHHHH",
"VVVVVVVVVAVVAVAVVVVVVVVVAVVVVVVVVVVVVSVVSSVSAVSVSSAVSVSSAAASASSFSSSSFFSSFSFSDDSSDZDZDDDZDDDDDDDDDDDDDDDDDDDDDHDHDHDHHHHHHHHHHHHH",
"VVVDVVVVAVVAAVVAVVVVAVVVDAVDDVDVDVVSDVVSSSSSSSSSASSASSVSASASSSSSSDSFSSSSDSSFSSDDDDDDDDDDDDDDDDDHDDDDHDDDDHHDHHHHHHHHHHHHHHHHHHHH",
"VDVVDVVDAAAAAAAAAVAAVAAVAAVDVVVDVVDVSSSVSSSSSSAASSSASASSSSSSSDDSSSSSDSSSDFDDDSDDZDDDDDDDDDDDHDDDDDHDHDDDDHDDDHHHHHHHHHHHHHHHHHHH"
};
